<?xml version="1.0" encoding="UTF-8"?>
<svg xmlns="http://www.w3.org/2000/svg" width="100%" height="100%">
   <g transform="translate(100, 600)">
      <g id="baseStuff">
         <line x1="45"
               x2="45"
               y1="0"
               y2="-450"
               stroke="#EEEEEE"
               stroke-width="50"/>
         <line x1="145"
               x2="145"
               y1="0"
               y2="-450"
               stroke="#EEEEEE"
               stroke-width="50"/>
         <line x1="245"
               x2="245"
               y1="0"
               y2="-450"
               stroke="#EEEEEE"
               stroke-width="50"/>
         <line x1="345"
               x2="345"
               y1="0"
               y2="-450"
               stroke="#EEEEEE"
               stroke-width="50"/>
         <line x1="445"
               x2="445"
               y1="0"
               y2="-450"
               stroke="#EEEEEE"
               stroke-width="50"/>
         <line x1="535"
               x2="535"
               y1="0"
               y2="-450"
               stroke="#EEEEEE"
               stroke-width="30"/>
         <text x="275" y="-525" text-anchor="middle" font-size="18px">Percentage of Dash Reduction in Published Versions Compared to Originals</text>
         <line x1="-1"
               x2="550"
               y1="0"
               y2="0"
               stroke="black"
               stroke-width="1"/>
         <text x="-25" y="-100" text-anchor="middle">25%</text>
         <line x1="-10"
               x2="550"
               y1="-100"
               y2="-100"
               style="stroke: black; fill:none; stroke-width: 1px; stroke-dasharray: 10 5"/>
         <text x="-25" y="-200" text-anchor="middle">50%</text>
         <line x1="-10"
               x2="550"
               y1="-200"
               y2="-200"
               style="stroke: black; fill:none; stroke-width: 1px; stroke-dasharray: 10 5"/>
         <text x="-25" y="-300" text-anchor="middle">75%</text>
         <line x1="-10"
               x2="550"
               y1="-300"
               y2="-300"
               style="stroke: black; fill:none; stroke-width: 1px; stroke-dasharray: 10 5"/>
         <text x="-25" y="-400" text-anchor="middle">100%</text>
         <line x1="-10"
               x2="550"
               y1="-400"
               y2="-400"
               style="stroke: black; fill:none; stroke-width: 1px; stroke-dasharray: 10 5"/>
         <text x="210"
               y="-50"
               transform="rotate(-90)"
               text-anchor="middle"
               font-size="20px">Percentage of Reduction</text>
         <line x1="20"
               x2="20"
               y1="10"
               y2="-450"
               stroke="black"
               stroke-width="1"/>
         <text x="45" y="25" text-anchor="middle" font-size="10px">Poem 1</text>
         <line x1="70"
               x2="70"
               y1="10"
               y2="-450"
               stroke="black"
               stroke-width="1"/>
         <text x="95" y="25" text-anchor="middle" font-size="10px">Poem 2</text>
         <line x1="120"
               x2="120"
               y1="10"
               y2="-450"
               stroke="black"
               stroke-width="1"/>
         <text x="145" y="25" text-anchor="middle" font-size="10px">Poem 3</text>
         <line x1="170"
               x2="170"
               y1="10"
               y2="-450"
               stroke="black"
               stroke-width="1"/>
         <text x="195" y="25" text-anchor="middle" font-size="10px">Poem 4</text>
         <line x1="220"
               x2="220"
               y1="10"
               y2="-450"
               stroke="black"
               stroke-width="1"/>
         <text x="245" y="25" text-anchor="middle" font-size="10px">Poem 5</text>
         <line x1="270"
               x2="270"
               y1="10"
               y2="-450"
               stroke="black"
               stroke-width="1"/>
         <text x="295" y="25" text-anchor="middle" font-size="10px">Poem 6</text>
         <line x1="320"
               x2="320"
               y1="10"
               y2="-450"
               stroke="black"
               stroke-width="1"/>
         <text x="345" y="25" text-anchor="middle" font-size="10px">Poem 7</text>
         <line x1="370"
               x2="370"
               y1="10"
               y2="-450"
               stroke="black"
               stroke-width="1"/>
         <text x="395" y="25" text-anchor="middle" font-size="10px">Poem 8</text>
         <line x1="420"
               x2="420"
               y1="10"
               y2="-450"
               stroke="black"
               stroke-width="1"/>
         <text x="445" y="25" text-anchor="middle" font-size="10px">Poem 9</text>
         <line x1="470"
               x2="470"
               y1="10"
               y2="-450"
               stroke="black"
               stroke-width="1"/>
         <text x="495" y="25" text-anchor="middle" font-size="10px">Poem 10</text>
         <line x1="520"
               x2="520"
               y1="10"
               y2="-450"
               stroke="black"
               stroke-width="1"/>
         <text x="545" y="25" text-anchor="middle" font-size="10px">Poem 11</text>
         <line x1="550"
               x2="550"
               y1="10"
               y2="-450"
               stroke="black"
               stroke-width="1"/>
      </g>
      <g id="dots"><!--Poem number: 1. Dash Count: 21 CE % Reduction: 90.47619047619048 CE Dash Count: 2-->
         <circle cx="25" cy="-361.9047619047619" r="4" fill="#0099CC"/>
         <circle cx="45" cy="--57.14285714285714" r="4" fill="#2200CC"/>
         <circle cx="60" cy="-361.9047619047619" r="4" fill="#FFFF00"/>
         <!--Poem number: 2. Dash Count: 22 CE % Reduction: 95.45454545454545 CE Dash Count: 1-->
         <circle cx="75" cy="-381.8181818181818" r="4" fill="#0099CC"/>
         <circle cx="85" cy="-381.8181818181818" r="4" fill="#D9007E"/>
         <circle cx="95" cy="-0" r="4" fill="#2200CC"/>
         <circle cx="100" cy="-381.8181818181818" r="4" fill="#00CC00"/>
         <!--Poem number: 3. Dash Count: 17 CE % Reduction: 94.11764705882352 CE Dash Count: 1-->
         <circle cx="125" cy="-376.4705882352941" r="4" fill="#0099CC"/>
         <circle cx="145" cy="-94.11764705882352" r="4" fill="#2200CC"/>
         <circle cx="155" cy="-376.4705882352941" r="4" fill="#ACE500"/>
         <!--Poem number: 4. Dash Count: 5 CE % Reduction: 100 CE Dash Count: 0-->
         <circle cx="175" cy="-400" r="4" fill="#0099CC"/>
         <circle cx="195" cy="-80" r="4" fill="#2200CC"/>
         <circle cx="215" cy="-400" r="4" fill="#FF9900"/>
         <!--Poem number: 5. Dash Count: 14 CE % Reduction: 78.57142857142857 CE Dash Count: 3-->
         <circle cx="225" cy="-314.2857142857143" r="4" fill="#0099CC"/>
         <circle cx="245" cy="-57.14285714285714" r="4" fill="#2200CC"/>
         <circle cx="255" cy="-314.2857142857143" r="4" fill="#ACE500"/>
         <!--Poem number: 6. Dash Count: 25 CE % Reduction: 24 CE Dash Count: 19-->
         <circle cx="295" cy="-32" r="4" fill="#2200CC"/>
         <!--Poem number: 7. Dash Count: 3 CE % Reduction: 100 CE Dash Count: 0-->
         <circle cx="325" cy="-400" r="4" fill="#0099CC"/>
         <circle cx="345" cy="-0" r="4" fill="#2200CC"/>
         <circle cx="350" cy="-400" r="4" fill="#00CC00"/>
         <!--Poem number: 8. Dash Count: 19 CE % Reduction: 100 CE Dash Count: 0-->
         <circle cx="390" cy="-400" r="4" fill="#8800CC"/>
         <!--Poem number: 9. Dash Count: 12 CE % Reduction: 91.66666666666666 CE Dash Count: 1-->
         <circle cx="425" cy="-366.66666666666663" r="4" fill="#0099CC"/>
         <circle cx="445" cy="-0" r="4" fill="#2200CC"/>
         <circle cx="455" cy="-366.66666666666663" r="4" fill="#ACE500"/>
         <!--Poem number: 10. Dash Count: 5 CE % Reduction: 100 CE Dash Count: 0-->
         <circle cx="475" cy="-400" r="4" fill="#0099CC"/>
         <circle cx="495" cy="-160" r="4" fill="#2200CC"/>
         <circle cx="515" cy="-400" r="4" fill="#FF9900"/>
         <!--Poem number: 11. Dash Count: 11 CE % Reduction: 54.54545454545454 CE Dash Count: 5-->
         <circle cx="525" cy="-218.18181818181816" r="4" fill="#0099CC"/>
         <circle cx="530" cy="--36.36363636363637" r="4" fill="#ec008c"/>
      </g>
   </g>
</svg>
